HIERARCHY
ROOT Hips
{
	OFFSET	0.000000	0.000000	0.000000
	CHANNELS 6 Xposition Yposition Zposition Zrotation Xrotation Yrotation
	JOINT LeftUpLeg
	{
		OFFSET	12.830505	-7.049846	-1.643436
		CHANNELS 3 Zrotation Xrotation Yrotation
		JOINT LeftLeg
		{
			OFFSET	0.620834	-39.957500	-1.919341
			CHANNELS 3 Zrotation Xrotation Yrotation
			JOINT LeftFoot
			{
				OFFSET	-0.413890	-44.704761	-3.870325
				CHANNELS 3 Zrotation Xrotation Yrotation
				JOINT LeftFootHeel
				{
					OFFSET	0.164738	-8.918193	-6.555130
					CHANNELS 3 Zrotation Xrotation Yrotation
					End Site
					{
						OFFSET	-0.604053	0.000000	21.044330
					}
				}
			}
		}
	}
	JOINT RightUpLeg
	{
		OFFSET	-12.830505	-7.049846	-1.643436
		CHANNELS 3 Zrotation Xrotation Yrotation
		JOINT RightLeg
		{
			OFFSET	-0.620834	-39.957500	-1.919341
			CHANNELS 3 Zrotation Xrotation Yrotation
			JOINT RightFoot
			{
				OFFSET	0.413890	-44.704761	-3.870325
				CHANNELS 3 Zrotation Xrotation Yrotation
				JOINT RightFootHeel
				{
					OFFSET	-0.164738	-8.918193	-6.555130
					CHANNELS 3 Zrotation Xrotation Yrotation
					End Site
					{
						OFFSET	0.604053	0.000000	21.044330
					}
				}
			}
		}
	}
	JOINT Spine
	{
		OFFSET	0.000000	12.498170	1.820647
		CHANNELS 3 Zrotation Xrotation Yrotation
		JOINT Spine1
		{
			OFFSET	0.000000	7.620000	0.000000
			CHANNELS 3 Zrotation Xrotation Yrotation
			JOINT LeftShoulder
			{
				OFFSET	9.167800	29.136339	-5.551221
				CHANNELS 3 Zrotation Xrotation Yrotation
				JOINT LeftArm
				{
					OFFSET	12.133453	-3.880866	1.461963
					CHANNELS 3 Zrotation Xrotation Yrotation
					JOINT LeftForeArm
					{
						OFFSET	2.507115	-31.664908	-1.069404
						CHANNELS 3 Zrotation Xrotation Yrotation
						JOINT LeftHand
						{
							OFFSET	4.116172	-24.512624	5.009439
							CHANNELS 3 Zrotation Xrotation Yrotation
							End Site
							{
								OFFSET	-0.213136	-10.931856	2.182134
							}
						}
					}
				}
			}
			JOINT RightShoulder
			{
				OFFSET	-9.167800	29.136339	-5.551221
				CHANNELS 3 Zrotation Xrotation Yrotation
				JOINT RightArm
				{
					OFFSET	-12.133453	-3.880866	1.461963
					CHANNELS 3 Zrotation Xrotation Yrotation
					JOINT RightForeArm
					{
						OFFSET	-2.507115	-31.664908	-1.069404
						CHANNELS 3 Zrotation Xrotation Yrotation
						JOINT RightHand
						{
							OFFSET	-4.116172	-24.512624	5.009439
							CHANNELS 3 Zrotation Xrotation Yrotation
							End Site
							{
								OFFSET	0.213136	-10.931856	2.182134
							}
						}
					}
				}
			}
			JOINT Neck
			{
				OFFSET	0.000000	32.926272	-3.635654
				CHANNELS 3 Zrotation Xrotation Yrotation
				JOINT Head
				{
					OFFSET	0.000000	12.481178	4.646143
					CHANNELS 3 Zrotation Xrotation Yrotation
					End Site
					{
						OFFSET	0.000000	17.715204	-2.222063
					}
				}
			}
		}
	}
}
MOTION
Frames:     12
Frame Time: 0.016667
0.000000	99.994486	0.000000	7.511206	4.539211	-49.286983	8.073895	-26.091627	16.777208	-0.429757	26.976969	7.910901	-5.314555	-6.429577	5.646836	0.	0.	0.	-19.412170	-19.938990	-13.365940	3.871015	20.581774	1.856003	7.280411	-5.971213	9.510178	0.	0.	0.	0.000000	0.000000	-0.000005	4.021601	15.207978	-3.192467	5.791617	-9.050315	5.955862	0.913581	-13.392840	-0.786928	56.308533	-134.366913	67.450584	-19.802486	-1.311669	8.501776	-1.336199	-3.214298	-7.616165	-18.930868	-16.906755	1.714246	-68.368736	-124.284447	-74.565407	-6.678229	-11.037229	10.368044	-2.522482	3.173585	15.563131	-15.632655	-9.548627	15.146860	
0.000545	99.995164	-0.000177	7.505405	4.536647	-49.286007	8.075056	-26.085705	16.775700	-0.429756	26.976969	7.910904	-5.314554	-6.429577	5.646839	0.	0.	0.	-19.409786	-19.933107	-13.364313	3.882153	20.605486	1.854619	7.269266	-5.994716	9.510624	0.	0.	0.	0.000000	0.000000	0.000002	4.027945	15.209911	-3.165929	5.754873	-9.041607	5.955199	0.930450	-13.389052	-0.772709	56.295395	-134.374939	67.448853	-19.773190	-1.307324	8.506517	-1.342130	-3.209791	-7.644735	-18.939161	-16.903969	1.763371	-68.348251	-124.277206	-74.538223	-6.691198	-11.049795	10.377856	-2.523468	3.196959	15.573736	-15.646386	-9.554568	15.103920	
0.000545	99.995164	-0.000177	7.505405	4.536647	-49.286007	8.075056	-26.085705	16.775700	-0.429756	26.976969	7.910904	-5.314554	-6.429577	5.646839	0.	0.	0.	-19.409903	-19.936050	-13.348980	3.892520	20.620081	1.837771	7.264090	-6.007397	9.510691	0.	0.	0.	0.000000	0.000000	0.000002	4.030302	15.207661	-3.150707	5.739157	-9.036682	5.958831	0.932514	-13.395982	-0.765724	56.301956	-134.379913	67.463150	-19.757587	-1.305234	8.508825	-1.345410	-3.207300	-7.660542	-18.942883	-16.902721	1.785314	-68.339752	-124.275360	-74.526459	-6.691828	-11.058398	10.385356	-2.559942	3.201205	15.537511	-15.609989	-9.570949	15.122894	
0.000545	99.995164	-0.000177	7.505405	4.536647	-49.286007	8.075056	-26.085705	16.775700	-0.429756	26.976969	7.910904	-5.314554	-6.429577	5.646839	0.	0.	0.	-19.413128	-19.952242	-13.339739	3.907039	20.634653	1.862886	7.249517	-6.011147	9.469397	0.	0.	0.	0.000000	0.000000	0.000002	4.029467	15.204304	-3.115382	5.729627	-9.028868	5.968723	0.919145	-13.407814	-0.755155	56.315014	-134.388794	67.492020	-19.731859	-1.342464	8.513821	-1.346749	-3.203079	-7.695610	-18.946348	-16.901472	1.805597	-68.320724	-124.300224	-74.502243	-6.713368	-11.054458	10.391436	-2.554210	3.219919	15.465992	-15.611341	-9.592691	15.155037	
0.000545	99.995164	-0.000177	7.505405	4.536647	-49.286007	8.075056	-26.085705	16.775700	-0.429756	26.976969	7.910904	-5.314554	-6.429577	5.646839	0.	0.	0.	-19.413563	-19.960121	-13.301007	3.928158	20.632736	1.854645	7.238599	-6.008569	9.432068	0.	0.	0.	0.000000	0.000000	0.000002	4.009910	15.205572	-3.071870	5.739056	-9.024934	5.976855	0.906794	-13.405891	-0.743643	56.320049	-134.413254	67.509407	-19.704863	-1.352225	8.517964	-1.329983	-3.202433	-7.734053	-18.952789	-16.899176	1.843246	-68.313141	-124.311821	-74.486115	-6.726688	-11.070514	10.404298	-2.516922	3.242565	15.404184	-15.633933	-9.614239	15.175200	
0.001107	99.995852	-0.000349	7.499522	4.534083	-49.285007	8.076257	-26.079718	16.774149	-0.429757	26.976967	7.910899	-5.314555	-6.429576	5.646833	0.	0.	0.	-19.411264	-19.957085	-13.284156	3.918561	20.659109	1.876068	7.248624	-6.037488	9.402639	0.	0.	0.	-0.000002	-0.000000	-0.000002	3.982622	15.213594	-3.007936	5.754585	-9.002309	5.983919	0.897816	-13.358225	-0.718155	56.260517	-134.478424	67.471802	-19.686293	-1.341396	8.539853	-1.304725	-3.201568	-7.791360	-18.963476	-16.895563	1.906363	-68.221786	-124.269775	-74.398888	-6.698961	-11.061473	10.422632	-2.485224	3.244612	15.346906	-15.656382	-9.614070	15.188951	
0.000616	99.996811	0.001044	7.487762	4.528462	-49.272156	8.073009	-26.068968	16.759047	-0.429757	26.976973	7.910901	-5.314555	-6.429575	5.646834	0.	0.	0.	-19.414743	-19.961447	-13.289096	3.911139	20.703379	1.879563	7.255715	-6.062373	9.399526	0.	0.	0.	-0.000001	0.000001	-0.000002	3.970067	15.226672	-2.979363	5.763518	-8.998899	5.990084	0.891844	-13.347218	-0.737218	56.240364	-134.471420	67.482895	-19.663664	-1.334840	8.553785	-1.287993	-3.201135	-7.828112	-18.969383	-16.893545	1.941214	-68.111900	-124.257607	-74.297417	-6.684630	-11.021384	10.433034	-2.434232	3.238987	15.378225	-15.703504	-9.581161	15.130461	
0.009741	99.994660	-0.003636	7.474751	4.522048	-49.253292	8.066051	-26.075947	16.740463	-0.421836	26.994314	7.906904	-5.314555	-6.429575	5.646833	0.	0.	0.	-19.421667	-19.969257	-13.309302	3.911153	20.763315	1.888195	7.252724	-6.094878	9.397830	0.	0.	0.	-0.000001	-0.000001	-0.000002	3.976892	15.236909	-2.968844	5.752331	-8.992650	5.995261	0.890941	-13.334348	-0.737491	56.273788	-134.486755	67.515678	-19.617022	-1.315691	8.538993	-1.287949	-3.197877	-7.857563	-18.974180	-16.891850	1.969396	-68.043716	-124.269516	-74.230377	-6.690744	-10.997175	10.442119	-2.430609	3.248596	15.360085	-15.707373	-9.583390	15.117965	
0.015970	99.993982	-0.005688	7.459299	4.518077	-49.231514	8.061443	-26.078308	16.717987	-0.415956	27.007174	7.903946	-5.314554	-6.429578	5.646838	0.	0.	0.	-19.421339	-19.955156	-13.326547	3.903893	20.780481	1.901711	7.257814	-6.107063	9.388956	0.	0.	0.	-0.000000	-0.000001	-0.000001	3.992533	15.247141	-2.973693	5.735682	-8.989180	5.987090	0.897873	-13.339173	-0.743371	56.272671	-134.461700	67.511063	-19.634922	-1.278743	8.518480	-1.291723	-3.195041	-7.875688	-18.977526	-16.890669	1.989092	-68.020050	-124.259026	-74.206978	-6.680643	-10.998482	10.449768	-2.431337	3.273318	15.384079	-15.719491	-9.591142	15.074371	
0.024342	99.991521	-0.011324	7.459299	4.518077	-49.231514	8.060657	-26.093159	16.720613	-0.409544	27.021214	7.900718	-5.314554	-6.429576	5.646836	0.	0.	0.	-19.421339	-19.955156	-13.326547	3.898811	20.789598	1.921425	7.260479	-6.118523	9.372258	0.	0.	0.	-0.000000	-0.000001	-0.000001	3.992533	15.247141	-2.973693	5.726237	-8.986712	5.995995	0.905420	-13.336926	-0.753075	56.267220	-134.465515	67.504654	-19.634924	-1.278743	8.518483	-1.291723	-3.195041	-7.875688	-18.977526	-16.890669	1.989092	-68.020050	-124.259026	-74.206978	-6.680643	-10.998482	10.449768	-2.431337	3.273318	15.384079	-15.719491	-9.591142	15.074371	
0.047899	99.989448	-0.021234	7.428712	4.525796	-49.194153	8.065917	-26.125835	16.693830	-0.386648	27.064444	7.883562	-5.314555	-6.429575	5.646834	0.	0.	0.	-19.405359	-19.926521	-13.355232	3.887881	20.809448	1.966346	7.265922	-6.143735	9.333885	0.	0.	0.	-0.000001	0.000000	-0.000001	4.028145	15.262694	-3.011137	5.703265	-8.980721	6.017680	0.929828	-13.277677	-0.734597	56.264359	-134.450836	67.472450	-19.649628	-1.336565	8.528770	-1.291723	-3.195041	-7.875686	-18.977520	-16.890669	1.989092	-67.924377	-124.273582	-74.121704	-6.679882	-10.942342	10.450111	-2.419433	3.276776	15.432039	-15.725703	-9.574759	15.045731	
0.050891	99.994079	-0.016370	7.396933	4.534507	-49.155270	8.074501	-26.121098	16.683702	-0.367583	27.072227	7.850087	-5.315011	-6.428881	5.643567	0.	0.	0.	-19.388662	-19.904112	-13.348986	3.900610	20.813757	1.927009	7.265924	-6.143736	9.333888	0.	0.	0.	-0.000001	-0.000001	0.000002	4.065706	15.278363	-3.050071	5.686415	-8.976336	6.033601	0.948698	-13.238008	-0.739111	56.311787	-134.333969	67.515854	-19.643089	-1.418569	8.606235	-1.291721	-3.195040	-7.875685	-18.977526	-16.890673	1.989093	-67.856461	-124.289215	-74.060425	-6.684504	-10.900937	10.449765	-2.507639	3.272894	15.382539	-15.618480	-9.605215	15.111471	
